<svg width="37" height="24" viewBox="0 0 37 24" fill="none" xmlns="http://www.w3.org/2000/svg">
<path d="M35.6001 4.41908C35.2489 4.16474 34.7798 4.15957 34.4245 4.40349L28.4573 8.42393C28.2279 8.58068 28.0675 8.8246 28.0147 9.10176C27.9599 9.37786 28.0167 9.66543 28.171 9.90007C28.5142 10.4233 28.6949 11.0336 28.6949 11.6658C28.6949 13.4243 27.2959 14.8548 25.5762 14.8548C23.8565 14.8548 22.4576 13.4243 22.4576 11.6658C22.4576 10.6319 22.957 9.65714 23.7915 9.05712C24.2606 8.72079 24.3742 8.05847 24.0453 7.57786L19.15 0.426631C18.7643 -0.14221 17.8344 -0.14221 17.4486 0.426631L12.5534 7.57793C12.2245 8.05854 12.3382 8.72086 12.8072 9.05719C13.6417 9.65721 14.1411 10.632 14.1411 11.6659C14.1411 13.4244 12.7422 14.8549 11.0225 14.8549C9.30276 14.8549 7.90379 13.4244 7.90379 11.6659C7.90379 11.0337 8.08447 10.4233 8.42766 9.90014C8.582 9.6655 8.63883 9.378 8.58401 9.10183C8.5312 8.82468 8.37083 8.58068 8.14136 8.424L2.17418 4.40356C1.81685 4.15964 1.34981 4.16481 0.99858 4.41915C0.647348 4.67242 0.484901 5.11987 0.58844 5.54549L4.81562 22.5533C4.94556 23.089 5.45314 23.4471 5.99524 23.3443C14.1614 21.9533 22.4373 21.9533 30.6035 23.3443C30.6603 23.3547 30.7192 23.3589 30.774 23.3589C31.2431 23.3589 31.6653 23.0329 31.7831 22.5533L36.0103 5.54549C36.1138 5.1198 35.9514 4.67235 35.6001 4.41908Z" fill="url(#paint0_linear_3194_1387)"/>
<defs>
<linearGradient id="paint0_linear_3194_1387" x1="18.2993" y1="23.3618" x2="18.2993" y2="1.67097e-05" gradientUnits="userSpaceOnUse">
<stop stop-color="#FD5900"/>
<stop offset="1" stop-color="#FFDE00"/>
</linearGradient>
</defs>
</svg>
