<svg width="40" height="24" viewBox="0 0 40 24" fill="none" xmlns="http://www.w3.org/2000/svg">
<path d="M39.1503 4.41908C38.7579 4.16474 38.2338 4.15957 37.8369 4.40349L31.1702 8.42393C30.9138 8.58068 30.7347 8.8246 30.6757 9.10176C30.6144 9.37786 30.6779 9.66543 30.8503 9.90007C31.2337 10.4233 31.4356 11.0336 31.4356 11.6658C31.4356 13.4243 29.8727 14.8548 27.9514 14.8548C26.0301 14.8548 24.4671 13.4243 24.4671 11.6658C24.4671 10.6319 25.0251 9.65714 25.9574 9.05712C26.4815 8.72079 26.6085 8.05847 26.241 7.57786L20.7719 0.426631C20.3409 -0.14221 19.302 -0.14221 18.871 0.426631L13.4019 7.57793C13.0345 8.05854 13.1615 8.72086 13.6855 9.05719C14.6178 9.65721 15.1758 10.632 15.1758 11.6659C15.1758 13.4244 13.6128 14.8549 11.6916 14.8549C9.77027 14.8549 8.20731 13.4244 8.20731 11.6659C8.20731 11.0337 8.40917 10.4233 8.79259 9.90014C8.96502 9.6655 9.02851 9.378 8.96727 9.10183C8.90827 8.82468 8.7291 8.58068 8.47273 8.424L1.80606 4.40356C1.40684 4.15964 0.885056 4.16481 0.492653 4.41915C0.10025 4.67242 -0.0812406 5.11987 0.0344363 5.54549L4.75714 22.5533C4.90231 23.089 5.46939 23.4471 6.07503 23.3443C15.1985 21.9533 24.4444 21.9533 33.5679 23.3443C33.6314 23.3547 33.6972 23.3589 33.7584 23.3589C34.2825 23.3589 34.7542 23.0329 34.8859 22.5533L39.6086 5.54549C39.7242 5.1198 39.5427 4.67235 39.1503 4.41908Z" fill="url(#paint0_linear_3194_1037)"/>
<defs>
<linearGradient id="paint0_linear_3194_1037" x1="19.8215" y1="23.3618" x2="19.8215" y2="1.67097e-05" gradientUnits="userSpaceOnUse">
<stop stop-color="#5A4BB3" stop-opacity="0.55"/>
<stop offset="1" stop-color="#EDC8FF"/>
</linearGradient>
</defs>
</svg>
