<svg width="48" height="48" viewBox="0 0 48 48" fill="none" xmlns="http://www.w3.org/2000/svg">
<circle cx="24" cy="24" r="24" fill="url(#paint0_radial_3194_1392)" fill-opacity="0.15"/>
<path d="M24.6732 28.2533L24.3978 26.8193H22.4505L22.1752 28.2533C21.8844 29.7681 20.9975 31.0799 19.7368 31.86C19.4072 32.0639 19.5438 32.598 19.9256 32.598H26.9227C27.3045 32.598 27.4412 32.0639 27.1116 31.86C25.8509 31.0798 24.964 29.768 24.6732 28.2533Z" fill="url(#paint1_linear_3194_1392)"/>
<path d="M27.112 31.86C25.8513 31.0799 24.9644 29.7681 24.6735 28.2533L24.3982 26.8193H23.4857L23.2104 28.2533C22.9195 29.7681 22.0326 31.0799 20.7719 31.86C20.4423 32.0639 20.579 32.598 20.9608 32.598H26.923C27.3049 32.598 27.4415 32.0639 27.112 31.86Z" fill="url(#paint2_linear_3194_1392)"/>
<path d="M15.5947 24.5564C11.9595 24.5564 9.00195 21.8495 9.00195 18.5223C9.00195 15.1952 11.9595 12.4883 15.5947 12.4883C19.23 12.4883 22.1875 15.1952 22.1875 18.5223C22.1875 21.8495 19.23 24.5564 15.5947 24.5564ZM15.5947 13.8976C12.8085 13.8976 10.5418 15.9723 10.5418 18.5223C10.5418 21.0724 12.8085 23.1471 15.5947 23.1471C18.3809 23.1471 20.6477 21.0724 20.6477 18.5223C20.6477 15.9723 18.3809 13.8976 15.5947 13.8976Z" fill="url(#paint3_linear_3194_1392)"/>
<path d="M31.2539 24.5564C27.6187 24.5564 24.6611 21.8495 24.6611 18.5223C24.6611 15.1952 27.6187 12.4883 31.2539 12.4883C34.8892 12.4883 37.8467 15.1952 37.8467 18.5223C37.8467 21.8495 34.8892 24.5564 31.2539 24.5564ZM31.2539 13.8976C28.4677 13.8976 26.201 15.9723 26.201 18.5223C26.201 21.0724 28.4677 23.1471 31.2539 23.1471C34.0401 23.1471 36.3069 21.0724 36.3069 18.5223C36.3069 15.9723 34.0401 13.8976 31.2539 13.8976Z" fill="url(#paint4_linear_3194_1392)"/>
<path d="M34.1671 11.3819V11.3847L34.1602 11.4312C34.1602 11.4326 34.1595 11.434 34.1595 11.4354L33.3521 17.2328C32.7952 21.2332 30.3848 24.7143 26.8779 26.5853C24.7138 27.7402 22.1329 27.7402 19.9689 26.5853C18.2155 25.6495 16.7359 24.312 15.6256 22.7075C14.5147 21.1036 13.7735 19.2327 13.4947 17.2329L12.6873 11.4354C12.6873 11.434 12.6866 11.4326 12.6866 11.4312L12.6797 11.3847V11.3819C12.6797 10.6187 17.4895 10 23.4234 10C29.3573 10 34.1671 10.6187 34.1671 11.3819Z" fill="url(#paint5_linear_3194_1392)"/>
<path d="M30.0975 10.2979L29.3654 15.5545C28.8085 19.5549 26.3981 23.0361 22.8912 24.907C21.5509 25.6223 20.0508 25.8941 18.5889 25.7234C19.0274 26.0385 19.4878 26.327 19.9698 26.5843C22.1338 27.7392 24.7147 27.7392 26.8787 26.5843C30.3857 24.7133 32.7961 21.2323 33.353 17.2318L34.1603 11.4344C34.1603 11.433 34.161 11.4316 34.161 11.4302L34.1679 11.3837V11.3809C34.1679 10.942 32.5773 10.551 30.0975 10.2979Z" fill="url(#paint6_linear_3194_1392)"/>
<path d="M32.4329 11.3819V11.3847L32.4272 11.4312C32.4272 11.4326 32.4266 11.434 32.4266 11.4354L31.7496 17.2328C31.2826 21.2332 29.2616 24.7143 26.321 26.5853C24.5065 27.7402 22.3425 27.7402 20.5279 26.5853C19.0577 25.6495 17.8171 24.312 16.8861 22.7075C15.9545 21.1036 15.3331 19.2327 15.0993 17.2329L14.4224 11.4354C14.4224 11.434 14.4218 11.4326 14.4218 11.4312L14.416 11.3847V11.3819C14.416 10.6187 18.4489 10 23.4245 10C28.4 10 32.4329 10.6187 32.4329 11.3819Z" fill="url(#paint7_linear_3194_1392)"/>
<path d="M34.3538 11.3819V11.3847C34.3538 11.4002 34.351 11.4157 34.3468 11.4312C34.3468 11.4326 34.3461 11.434 34.3461 11.4354C34.1236 12.1746 29.3189 12.7645 23.424 12.7645C17.5291 12.7645 12.7244 12.1746 12.5018 11.4354C12.5018 11.434 12.5011 11.4326 12.5011 11.4312C12.4969 11.4157 12.4941 11.4002 12.4941 11.3847V11.3819C12.4941 10.6187 17.3872 10 23.424 10C29.4607 10 34.3538 10.6187 34.3538 11.3819Z" fill="url(#paint8_radial_3194_1392)"/>
<path d="M32.8919 12.0729C31.0023 11.6598 27.4701 11.3818 23.424 11.3818C19.3778 11.3818 15.8457 11.6598 13.9561 12.0729C15.8458 12.4862 19.378 12.764 23.424 12.764C27.4699 12.764 31.0021 12.4862 32.8919 12.0729Z" fill="url(#paint9_linear_3194_1392)"/>
<path d="M23.4236 12.4233C18.3665 12.4233 14.1061 11.9139 12.8151 11.2191C12.659 11.135 12.4729 11.2609 12.4938 11.4359L12.6201 12.4904C12.655 12.782 12.845 13.0324 13.1184 13.1455C15.1508 13.9866 19.0043 14.5543 23.4236 14.5543C27.8429 14.5543 31.6965 13.9866 33.7289 13.1455C34.0023 13.0324 34.1923 12.782 34.2272 12.4904L34.3535 11.4359C34.3744 11.2609 34.1883 11.135 34.0321 11.2191C32.7412 11.9139 28.4808 12.4233 23.4236 12.4233Z" fill="url(#paint10_linear_3194_1392)"/>
<path d="M28.0643 37.222H18.7839C18.3909 37.222 18.0723 36.9304 18.0723 36.5707V32.7871C18.0723 32.4273 18.3909 32.1357 18.7839 32.1357H28.0643C28.4573 32.1357 28.7759 32.4273 28.7759 32.7871V36.5707C28.7759 36.9304 28.4573 37.222 28.0643 37.222Z" fill="url(#paint11_linear_3194_1392)"/>
<path d="M19.1078 32.6719C18.859 32.6719 18.6572 32.8565 18.6572 33.0843V36.7414C18.6572 36.8831 18.689 37.0181 18.7463 37.1407C18.8802 37.1931 19.0277 37.2222 19.1826 37.2222H27.6646C28.2781 37.2222 28.7754 36.767 28.7754 36.2055V33.1528C28.7754 33.011 28.7436 32.876 28.6863 32.7534C28.5524 32.701 28.4049 32.6719 28.25 32.6719H19.1078V32.6719Z" fill="url(#paint12_linear_3194_1392)"/>
<path d="M28.0586 32.1357H27.1299C27.7434 32.1357 28.2407 32.5909 28.2407 33.1524V36.2052C28.2407 36.7668 27.7434 37.2219 27.1299 37.2219H27.6651C28.2787 37.2219 28.776 36.7667 28.776 36.2052V32.7923C28.776 32.4297 28.4548 32.1357 28.0586 32.1357Z" fill="url(#paint13_linear_3194_1392)"/>
<path d="M28.7756 36.5714V34.5505L27.1509 33.0635C27.1114 33.0134 27.0476 32.9805 26.975 32.9805H19.8726C19.7526 32.9805 19.6553 33.0695 19.6553 33.1794V35.4939C19.6553 35.5604 19.6913 35.6189 19.746 35.6549L21.4588 37.2227H28.064C28.457 37.2227 28.7756 36.9311 28.7756 36.5714Z" fill="url(#paint14_linear_3194_1392)"/>
<path d="M29.608 37.2234H17.2396C17.0334 37.2234 16.8662 37.0704 16.8662 36.8817C16.8662 36.549 17.1609 36.2793 17.5244 36.2793H29.3232C29.6867 36.2793 29.9813 36.549 29.9813 36.8817C29.9813 37.0704 29.8142 37.2234 29.608 37.2234Z" fill="#555A66"/>
<path d="M26.9749 35.6928H19.8726C19.7526 35.6928 19.6553 35.6038 19.6553 35.4939V33.1794C19.6553 33.0695 19.7526 32.9805 19.8726 32.9805H26.9749C27.0949 32.9805 27.1922 33.0695 27.1922 33.1794V35.4939C27.1922 35.6038 27.0949 35.6928 26.9749 35.6928Z" fill="url(#paint15_linear_3194_1392)"/>
<path d="M20.1413 33.5482C20.2301 33.5482 20.302 33.4823 20.302 33.4011C20.302 33.3198 20.2301 33.2539 20.1413 33.2539C20.0525 33.2539 19.9805 33.3198 19.9805 33.4011C19.9805 33.4823 20.0525 33.5482 20.1413 33.5482Z" fill="url(#paint16_linear_3194_1392)"/>
<path d="M26.7067 33.5482C26.7955 33.5482 26.8675 33.4823 26.8675 33.4011C26.8675 33.3198 26.7955 33.2539 26.7067 33.2539C26.6179 33.2539 26.5459 33.3198 26.5459 33.4011C26.5459 33.4823 26.6179 33.5482 26.7067 33.5482Z" fill="url(#paint17_linear_3194_1392)"/>
<path d="M20.1413 35.4183C20.2301 35.4183 20.302 35.3525 20.302 35.2712C20.302 35.1899 20.2301 35.124 20.1413 35.124C20.0525 35.124 19.9805 35.1899 19.9805 35.2712C19.9805 35.3525 20.0525 35.4183 20.1413 35.4183Z" fill="url(#paint18_linear_3194_1392)"/>
<path d="M26.7067 35.4183C26.7955 35.4183 26.8675 35.3525 26.8675 35.2712C26.8675 35.1899 26.7955 35.124 26.7067 35.124C26.6179 35.124 26.5459 35.1899 26.5459 35.2712C26.5459 35.3525 26.6179 35.4183 26.7067 35.4183Z" fill="url(#paint19_linear_3194_1392)"/>
<path d="M17.3125 14.4826C19.4005 13.6989 22.2874 15.7289 23.7605 19.0167C25.2337 22.3045 24.7352 25.6051 22.6472 26.3888C20.5592 27.1725 17.6723 25.1425 16.1992 21.8548C14.726 18.567 15.2245 15.2664 17.3125 14.4826Z" fill="url(#paint20_linear_3194_1392)"/>
<defs>
<radialGradient id="paint0_radial_3194_1392" cx="0" cy="0" r="1" gradientUnits="userSpaceOnUse" gradientTransform="translate(24 24) rotate(90) scale(24)">
<stop stop-color="#FFF9E2"/>
<stop offset="1" stop-color="#FFF5D1"/>
</radialGradient>
<linearGradient id="paint1_linear_3194_1392" x1="20.773" y1="29.5884" x2="24.9912" y2="30.0273" gradientUnits="userSpaceOnUse">
<stop stop-color="#FFDA45"/>
<stop offset="1" stop-color="#FFA425"/>
</linearGradient>
<linearGradient id="paint2_linear_3194_1392" x1="25.2323" y1="29.7696" x2="21.757" y2="34.4386" gradientUnits="userSpaceOnUse">
<stop stop-color="#FFDA45" stop-opacity="0"/>
<stop offset="1" stop-color="#FCEE21"/>
</linearGradient>
<linearGradient id="paint3_linear_3194_1392" x1="9.00195" y1="18.5223" x2="22.1875" y2="18.5223" gradientUnits="userSpaceOnUse">
<stop stop-color="#FFDA45"/>
<stop offset="1" stop-color="#FFA425"/>
</linearGradient>
<linearGradient id="paint4_linear_3194_1392" x1="24.6611" y1="18.5223" x2="37.8467" y2="18.5223" gradientUnits="userSpaceOnUse">
<stop stop-color="#FFDA45"/>
<stop offset="1" stop-color="#FFA425"/>
</linearGradient>
<linearGradient id="paint5_linear_3194_1392" x1="18.7649" y1="14.898" x2="35.3569" y2="24.4346" gradientUnits="userSpaceOnUse">
<stop stop-color="#FFDA45"/>
<stop offset="1" stop-color="#FFA425"/>
</linearGradient>
<linearGradient id="paint6_linear_3194_1392" x1="24.0169" y1="18.6474" x2="38.4765" y2="20.1623" gradientUnits="userSpaceOnUse">
<stop stop-color="#FFDA45" stop-opacity="0"/>
<stop offset="1" stop-color="#B53759"/>
</linearGradient>
<linearGradient id="paint7_linear_3194_1392" x1="25.716" y1="18.5561" x2="13.3402" y2="11.8839" gradientUnits="userSpaceOnUse">
<stop stop-color="#FFDA45" stop-opacity="0"/>
<stop offset="1" stop-color="#FCEE21"/>
</linearGradient>
<radialGradient id="paint8_radial_3194_1392" cx="0" cy="0" r="1" gradientUnits="userSpaceOnUse" gradientTransform="translate(23.3599 12.8202) scale(12.2223 2.12543)">
<stop stop-color="#FFA425"/>
<stop offset="0.3664" stop-color="#FFA727"/>
<stop offset="0.5929" stop-color="#FFAF2C"/>
<stop offset="0.7815" stop-color="#FFBE34"/>
<stop offset="0.9483" stop-color="#FFD240"/>
<stop offset="1" stop-color="#FFDA45"/>
</radialGradient>
<linearGradient id="paint9_linear_3194_1392" x1="23.424" y1="13.453" x2="23.424" y2="11.4587" gradientUnits="userSpaceOnUse">
<stop stop-color="#FFDA45"/>
<stop offset="1" stop-color="#FFA425"/>
</linearGradient>
<linearGradient id="paint10_linear_3194_1392" x1="23.4506" y1="11.9412" x2="23.6226" y2="16.0011" gradientUnits="userSpaceOnUse">
<stop stop-color="#FFDA45"/>
<stop offset="1" stop-color="#FFA425"/>
</linearGradient>
<linearGradient id="paint11_linear_3194_1392" x1="21.8683" y1="31.8097" x2="24.9289" y2="38.5477" gradientUnits="userSpaceOnUse">
<stop stop-color="#7E8595"/>
<stop offset="1" stop-color="#555A66"/>
</linearGradient>
<linearGradient id="paint12_linear_3194_1392" x1="23.3697" y1="34.7089" x2="15.886" y2="28.5695" gradientUnits="userSpaceOnUse">
<stop stop-color="#BEC3D2" stop-opacity="0"/>
<stop offset="0.221" stop-color="#C5C9D7" stop-opacity="0.221"/>
<stop offset="0.5343" stop-color="#D7DAE3" stop-opacity="0.534"/>
<stop offset="0.9014" stop-color="#F6F6F8" stop-opacity="0.901"/>
<stop offset="1" stop-color="white"/>
</linearGradient>
<linearGradient id="paint13_linear_3194_1392" x1="26.8631" y1="32.9202" x2="28.6268" y2="36.8032" gradientUnits="userSpaceOnUse">
<stop stop-color="#7E8595"/>
<stop offset="1" stop-color="#555A66" stop-opacity="0"/>
</linearGradient>
<linearGradient id="paint14_linear_3194_1392" x1="25.575" y1="38.6876" x2="23.7895" y2="32.9666" gradientUnits="userSpaceOnUse">
<stop stop-color="#555A66" stop-opacity="0"/>
<stop offset="1" stop-color="#555A66"/>
</linearGradient>
<linearGradient id="paint15_linear_3194_1392" x1="22.7886" y1="33.2545" x2="23.8667" y2="35.4473" gradientUnits="userSpaceOnUse">
<stop stop-color="#F9F7FC"/>
<stop offset="1" stop-color="#F0DDFC"/>
</linearGradient>
<linearGradient id="paint16_linear_3194_1392" x1="20.1751" y1="33.4589" x2="20.1176" y2="33.3418" gradientUnits="userSpaceOnUse">
<stop stop-color="#F9F7FC"/>
<stop offset="1" stop-color="#F0DDFC"/>
</linearGradient>
<linearGradient id="paint17_linear_3194_1392" x1="26.7406" y1="33.4589" x2="26.683" y2="33.3418" gradientUnits="userSpaceOnUse">
<stop stop-color="#F9F7FC"/>
<stop offset="1" stop-color="#F0DDFC"/>
</linearGradient>
<linearGradient id="paint18_linear_3194_1392" x1="20.1751" y1="35.329" x2="20.1176" y2="35.2119" gradientUnits="userSpaceOnUse">
<stop stop-color="#F9F7FC"/>
<stop offset="1" stop-color="#F0DDFC"/>
</linearGradient>
<linearGradient id="paint19_linear_3194_1392" x1="26.7406" y1="35.329" x2="26.683" y2="35.2119" gradientUnits="userSpaceOnUse">
<stop stop-color="#F9F7FC"/>
<stop offset="1" stop-color="#F0DDFC"/>
</linearGradient>
<linearGradient id="paint20_linear_3194_1392" x1="21.4721" y1="19.4732" x2="14.4746" y2="24.9394" gradientUnits="userSpaceOnUse">
<stop stop-color="#FFDA45" stop-opacity="0"/>
<stop offset="1" stop-color="white"/>
</linearGradient>
</defs>
</svg>
